<?xml version="1.0" encoding="UTF-8"?>
<svg id="Layer_1" data-name="Layer 1" xmlns="http://www.w3.org/2000/svg" viewBox="0 0 500 500">
  <defs>
    <style>
      .cls-1 {
        fill: #0b805b;
      }

      .cls-2 {
        fill: #50a48b;
      }
    </style>
  </defs>
  <path class="cls-1" d="m257.73,277.91l-36.42-10.73c-16.88-5.08-32.32-11-46.31-17.7-13.99-6.73-26.08-14.59-36.25-23.58-10.17-8.98-18.02-19.26-23.55-30.79-5.56-11.53-8.33-24.48-8.33-38.83,0-22.34,6-42.15,17.99-59.4,12-17.27,28.51-30.89,49.59-40.89,21.08-9.98,45.14-14.98,72.22-14.98,40.14,0,72.9,10.73,98.25,32.15,25.33,21.44,39.46,49.51,42.37,84.21h0c19.13,0,32.66-18.46,27.21-36.8-4.18-14.06-10.34-27.19-18.49-39.38-14.91-22.24-35.06-39.78-60.51-52.57-25.42-12.82-54.76-19.23-88-19.23s-62.72,6.36-88.97,19.09-47.01,30.21-62.26,52.45c-15.27,22.27-22.9,47.74-22.9,76.44,0,34.14,11.49,62.67,34.48,85.55,22.97,22.9,56.26,40.97,99.85,54.22h0c14.58,4.4,30.39.42,41.16-10.35l8.89-8.89Z"/>
  <path class="cls-2" d="m242.72,201.78c11.18-11.19,27.59-15.37,42.77-10.9h0c20.88,6.36,40.19,13.72,57.91,22.07,17.7,8.35,33.15,18.28,46.33,29.82,13.16,11.56,23.43,25.04,30.79,40.48,7.36,15.44,11.02,33.24,11.02,53.4,0,29.43-7.6,55.78-22.75,79.02-15.18,23.26-36.69,41.57-64.57,54.93-27.9,13.36-60.73,20.01-98.52,20.01s-67.26-6.07-93.88-18.24c-26.61-12.19-47.64-29.12-63.09-50.82-8.14-11.44-14.41-23.8-18.81-37.08-6.2-18.71,7.81-38.01,27.53-38.01h0c1.82,23.07,9.23,43,22.22,59.81,12.99,16.8,30.28,29.75,51.92,38.83,21.61,9.11,46.31,13.65,74.11,13.65,29.96,0,56.41-5.15,79.28-15.4,22.9-10.27,40.8-24.57,53.69-42.93,12.89-18.33,19.35-39.68,19.35-64.03,0-19.62-4.64-36.42-13.91-50.41-9.25-13.99-22.92-26.06-40.99-36.23-18.09-10.17-40.48-19.26-67.19-27.27l-41.43-12.48,8.2-8.21Z"/>
</svg>